{"title":"American Gangster (2007) 720p BRRip NL subs DutchReleaseTeam)_xv","uid":7057286,"size":2585761516,"categoryP":"video","categoryS":"hd___movies","magnet":"?xt=urn:btih:45383155fbc5bef661ad2b38dbbeec681adf1a74&amp;dn=American+Gangster+%282007%29+720p+BRRip+NL+subs+DutchReleaseTeam%29_xv&amp;tr=udp%3A%2F%2Ftracker.openbittorrent.com%3A80&amp;tr=udp%3A%2F%2Fopen.demonii.com%3A1337&amp;tr=udp%3A%2F%2Ftracker.coppersurfer.tk%3A6969&amp;tr=udp%3A%2F%2Fexodus.desync.com%3A6969","seeders":1,"leechers":0,"uploader":"BreinZiek","files":1,"time":1330179307,"description":"MKV files van de DRT omgezet naar AVI met ingebakken NLSubs.\n\nGeneral\nComplete name                            : F:\\Vuze Downloads\\American Gangster (2007) 720p BRRip NL subs DutchReleaseTeam)\\American Gangster (2007) 720p BRRip NL subs DutchReleaseTeam)_xvid_003.avi\nFormat                                   : AVI\nFormat/Info                              : Audio Video Interleave\nFormat profile                           : OpenDML\nFile size                                : 2.41 GiB\nDuration                                 : 2h 36mn\nOverall bit rate mode                    : Variable\nOverall bit rate                         : 2 198 Kbps\nWriting application                      : MEncoder r33883\nWriting library                          : MPlayer\n\nVideo\nID                                       : 0\nFormat                                   : MPEG-4 Visual\nFormat profile                           : Simple@L3\nFormat settings, BVOP                    : No\nFormat settings, QPel                    : No\nFormat settings, GMC                     : No warppoints\nFormat settings, Matrix                  : Default (H.263)\nCodec ID                                 : XVID\nCodec ID/Hint                            : XviD\nDuration                                 : 2h 36mn\nBit rate                                 : 1 999 Kbps\nWidth                                    : 1 280 pixels\nHeight                                   : 720 pixels\nDisplay aspect ratio                     : 16:9\nFrame rate                               : 23.976 fps\nColor space                              : YUV\nChroma subsampling                       : 4:2:0\nBit depth                                : 8 bits\nScan type                                : Progressive\nCompression mode                         : Lossy\nBits/(Pixel*Frame)                       : 0.090\nStream size                              : 2.19 GiB (91%)\nWriting library                          : XviD 63\n\nAudio\nID                                       : 1\nFormat                                   : MPEG Audio\nFormat version                           : Version 1\nFormat profile                           : Layer 3\nMode                                     : Joint stereo\nMode extension                           : MS Stereo\nCodec ID                                 : 55\nCodec ID/Hint                            : MP3\nDuration                                 : 2h 36mn\nBit rate mode                            : Variable\nBit rate                                 : 188 Kbps\nChannel(s)                               : 2 channels\nSampling rate                            : 48.0 KHz\nCompression mode                         : Lossy\nStream size                              : 211 MiB (9%)\nAlignment                                : Aligned on interleaves\nInterleave, duration                     : 24 ms (0.58 video frame)\nInterleave, preload duration             : 153 ms\nWriting library                          : LAME3.98.4\n\n","torrent":{"xt":"urn:btih:45383155fbc5bef661ad2b38dbbeec681adf1a74","amp;dn":"American+Gangster+%282007%29+720p+BRRip+NL+subs+DutchReleaseTeam%29_xv","amp;tr":["udp%3A%2F%2Ftracker.openbittorrent.com%3A80","udp%3A%2F%2Fopen.demonii.com%3A1337","udp%3A%2F%2Ftracker.coppersurfer.tk%3A6969","udp%3A%2F%2Fexodus.desync.com%3A6969"],"infoHash":"45383155fbc5bef661ad2b38dbbeec681adf1a74","infoHashBuffer":{"type":"Buffer","data":[69,56,49,85,251,197,190,246,97,173,43,56,219,190,236,104,26,223,26,116]},"announce":[],"urlList":[]}}